<svg width="640" height="107" viewBox="0 0 640 107" fill="none" xmlns="http://www.w3.org/2000/svg">
<path d="M0 0H586.5C616.047 0 640 23.9528 640 53.5C640 83.0472 616.047 107 586.5 107H0L88 53.5L0 0Z" fill="#BAA473"/>
<path d="M174.755 48.04V46.12H180.067C182.285 46.12 184.077 45.864 185.443 45.352C186.851 44.7973 187.875 43.7947 188.515 42.344C189.155 40.8507 189.475 38.7387 189.475 36.008C189.475 33.32 189.197 31.3147 188.643 29.992C188.088 28.6267 187.256 27.7093 186.147 27.24C185.037 26.7707 183.651 26.536 181.987 26.536H159.715V24.744H184.995C187.981 24.744 190.669 25.192 193.059 26.088C195.448 26.9413 197.347 28.1787 198.755 29.8C200.163 31.4213 200.867 33.4053 200.867 35.752C200.867 38.312 200.035 40.5093 198.371 42.344C196.707 44.1787 194.317 45.5867 191.203 46.568C188.131 47.5493 184.419 48.04 180.067 48.04H174.755ZM159.715 73V71.208H183.523V73H159.715ZM166.115 72.04V24.744H175.715V72.04H166.115ZM199.331 73C197.197 73 195.277 72.5947 193.571 71.784C191.864 70.9733 190.499 69.8427 189.475 68.392C188.451 66.8987 187.896 65.1707 187.811 63.208L187.555 56.872C187.427 53.8427 186.573 51.624 184.995 50.216C183.459 48.7653 181.475 48.04 179.043 48.04L183.907 47.528H187.555V47.784C189.432 48.2107 191.245 49.0427 192.995 50.28C194.787 51.5173 196.237 53.0107 197.347 54.76C198.499 56.5093 199.075 58.408 199.075 60.456V63.464C199.075 66.408 199.395 68.4133 200.035 69.48C200.675 70.5467 201.827 71.08 203.491 71.08H205.923V73H199.331ZM222.495 73.832C220.319 73.832 218.271 73.4053 216.351 72.552C214.473 71.6987 212.809 70.5467 211.359 69.096C209.951 67.6453 208.841 66.024 208.031 64.232C207.263 62.3973 206.879 60.4773 206.879 58.472C206.879 55.9547 207.497 53.5653 208.735 51.304C210.015 49 211.785 47.1227 214.047 45.672C216.351 44.1787 219.039 43.432 222.111 43.432C224.585 43.432 226.804 43.944 228.767 44.968C230.772 45.992 232.329 47.464 233.439 49.384C234.591 51.2613 235.167 53.48 235.167 56.04V56.616H213.407V54.824H226.655V50.984C226.655 47.2293 225.076 45.352 221.919 45.352C220.553 45.352 219.444 45.7787 218.591 46.632C217.78 47.4427 217.183 48.8293 216.799 50.792C216.415 52.712 216.223 55.3573 216.223 58.728C216.223 62.184 216.415 64.8507 216.799 66.728C217.225 68.6053 217.908 69.9067 218.847 70.632C219.828 71.3147 221.129 71.656 222.751 71.656C225.012 71.656 227.039 71.1013 228.831 69.992C230.623 68.8827 232.137 66.9413 233.375 64.168H235.359C234.463 67.112 232.863 69.4587 230.559 71.208C228.297 72.9573 225.609 73.832 222.495 73.832ZM248.758 73.768C246.326 73.768 244.321 73.1067 242.742 71.784C241.206 70.4613 240.438 68.712 240.438 66.536C240.438 64.488 241.142 62.7387 242.55 61.288C244.001 59.7947 246.049 58.664 248.694 57.896C251.339 57.0853 254.454 56.68 258.038 56.68V49.064C258.038 47.9547 257.611 47.08 256.758 46.44C255.947 45.8 254.859 45.48 253.494 45.48C252.299 45.48 251.297 45.6933 250.486 46.12C249.718 46.5467 249.334 47.1013 249.334 47.784C249.334 48.296 249.526 48.744 249.91 49.128C250.337 49.512 250.55 50.1307 250.55 50.984C250.55 52.008 250.145 52.904 249.334 53.672C248.523 54.44 247.542 54.824 246.39 54.824C245.195 54.824 244.235 54.44 243.51 53.672C242.785 52.904 242.422 51.944 242.422 50.792C242.422 49.384 242.955 48.1253 244.022 47.016C245.089 45.9067 246.561 45.032 248.438 44.392C250.358 43.752 252.513 43.432 254.902 43.432C258.187 43.432 260.897 44.0507 263.03 45.288C265.163 46.4827 266.23 48.0613 266.23 50.024V68.904C266.23 69.3307 266.358 69.6933 266.614 69.992C266.913 70.248 267.275 70.376 267.702 70.376C268.043 70.376 268.427 70.2267 268.854 69.928C269.323 69.5867 269.921 68.9893 270.646 68.136L271.798 69.48C269.579 72.3387 267.062 73.768 264.246 73.768C262.582 73.768 261.259 73.3627 260.278 72.552C259.297 71.7413 258.635 70.632 258.294 69.224H258.038C257.227 70.4187 255.99 71.4853 254.326 72.424C252.705 73.32 250.849 73.768 248.758 73.768ZM252.918 70.248C254.369 70.248 255.585 69.6507 256.566 68.456C257.547 67.2187 258.038 65.6187 258.038 63.656V58.536C255.137 58.536 252.918 59.1333 251.382 60.328C249.846 61.48 249.078 63.1867 249.078 65.448C249.078 66.8987 249.398 68.072 250.038 68.968C250.721 69.8213 251.681 70.248 252.918 70.248ZM287.689 73.768C285.47 73.768 283.358 73.1493 281.353 71.912C279.348 70.632 277.705 68.8613 276.425 66.6C275.188 64.296 274.569 61.6293 274.569 58.6C274.569 55.5707 275.188 52.9253 276.425 50.664C277.662 48.36 279.284 46.5893 281.289 45.352C283.294 44.072 285.406 43.432 287.625 43.432C289.63 43.432 291.38 43.8587 292.873 44.712C294.409 45.5653 295.518 46.632 296.201 47.912H297.737L296.457 57.64C296.457 53.544 295.732 50.5573 294.281 48.68C292.83 46.76 291.017 45.8 288.841 45.8C287.689 45.8 286.75 46.1627 286.025 46.888C285.3 47.5707 284.766 48.8293 284.425 50.664C284.084 52.4987 283.913 55.1653 283.913 58.664C283.913 62.12 284.062 64.7653 284.361 66.6C284.702 68.4347 285.236 69.6933 285.961 70.376C286.686 71.0587 287.625 71.4 288.777 71.4C290.953 71.4 292.766 70.4613 294.217 68.584C295.71 66.664 296.457 63.656 296.457 59.56L297.737 69.288H296.201C295.518 70.568 294.43 71.6347 292.937 72.488C291.444 73.3413 289.694 73.768 287.689 73.768ZM296.457 73V71.208H309.577V73H296.457ZM296.457 72.04V25.768H304.649V72.04H296.457ZM290.121 26.536V24.744H304.649V26.536H290.121ZM346.707 73.576L333.011 29.608H332.755V71.208H339.795V73H322.963V71.208H330.003V26.536H322.963V24.744H342.227L351.699 55.4H351.891L361.427 24.744H379.411V26.536H372.627V71.208H379.411V73H356.115V71.208H363.027V29.608H362.771L349.203 73.576H346.707ZM398.873 73.832C396.697 73.832 394.649 73.448 392.729 72.68C390.851 71.912 389.187 70.8453 387.737 69.48C386.329 68.072 385.219 66.4507 384.409 64.616C383.598 62.7387 383.193 60.7333 383.193 58.6C383.193 56.4667 383.598 54.4827 384.409 52.648C385.219 50.8133 386.329 49.2133 387.737 47.848C389.187 46.4827 390.851 45.416 392.729 44.648C394.649 43.8373 396.697 43.432 398.873 43.432C401.049 43.432 403.075 43.8373 404.953 44.648C406.83 45.416 408.494 46.4827 409.945 47.848C411.395 49.2133 412.526 50.8133 413.337 52.648C414.147 54.4827 414.553 56.4667 414.553 58.6C414.553 60.7333 414.147 62.7387 413.337 64.616C412.526 66.4507 411.395 68.072 409.945 69.48C408.494 70.8453 406.83 71.912 404.953 72.68C403.075 73.448 401.049 73.832 398.873 73.832ZM398.873 71.656C400.409 71.656 401.625 71.3147 402.521 70.632C403.459 69.9493 404.121 68.6693 404.505 66.792C404.931 64.9147 405.145 62.2053 405.145 58.664C405.145 55.1227 404.931 52.4133 404.505 50.536C404.121 48.616 403.459 47.3147 402.521 46.632C401.625 45.9067 400.409 45.544 398.873 45.544C397.337 45.544 396.099 45.9067 395.161 46.632C394.265 47.3147 393.603 48.616 393.177 50.536C392.793 52.4133 392.601 55.1227 392.601 58.664C392.601 62.2053 392.793 64.9147 393.177 66.792C393.603 68.6693 394.265 69.9493 395.161 70.632C396.099 71.3147 397.337 71.656 398.873 71.656ZM418.91 73V71.208H424.03V45.992H418.91V44.2H432.286V49.192H432.542C433.822 46.8027 435.208 45.2453 436.702 44.52C438.238 43.7947 439.624 43.432 440.862 43.432C442.611 43.432 443.976 43.9013 444.958 44.84C445.939 45.7787 446.43 47.1013 446.43 48.808C446.43 50.472 445.982 51.7093 445.086 52.52C444.232 53.288 443.187 53.672 441.95 53.672C440.84 53.672 439.838 53.352 438.942 52.712C438.046 52.072 437.598 51.1333 437.598 49.896C437.598 49.256 437.704 48.7867 437.918 48.488C438.131 48.1467 438.238 47.8693 438.238 47.656C438.238 47.528 438.195 47.4213 438.11 47.336C438.024 47.208 437.832 47.144 437.534 47.144C436.894 47.144 436.147 47.592 435.294 48.488C434.483 49.384 433.779 50.5573 433.182 52.008C432.584 53.4587 432.286 55.0587 432.286 56.808V71.208H436.958V73H418.91ZM466.182 73.832C464.006 73.832 461.958 73.4053 460.038 72.552C458.161 71.6987 456.497 70.5467 455.046 69.096C453.638 67.6453 452.529 66.024 451.718 64.232C450.95 62.3973 450.566 60.4773 450.566 58.472C450.566 55.9547 451.185 53.5653 452.422 51.304C453.702 49 455.473 47.1227 457.734 45.672C460.038 44.1787 462.726 43.432 465.798 43.432C468.273 43.432 470.491 43.944 472.454 44.968C474.459 45.992 476.017 47.464 477.126 49.384C478.278 51.2613 478.854 53.48 478.854 56.04V56.616H457.094V54.824H470.342V50.984C470.342 47.2293 468.763 45.352 465.606 45.352C464.241 45.352 463.131 45.7787 462.278 46.632C461.467 47.4427 460.87 48.8293 460.486 50.792C460.102 52.712 459.91 55.3573 459.91 58.728C459.91 62.184 460.102 64.8507 460.486 66.728C460.913 68.6053 461.595 69.9067 462.534 70.632C463.515 71.3147 464.817 71.656 466.438 71.656C468.699 71.656 470.726 71.1013 472.518 69.992C474.31 68.8827 475.825 66.9413 477.062 64.168H479.046C478.15 67.112 476.55 69.4587 474.246 71.208C471.985 72.9573 469.297 73.832 466.182 73.832Z" fill="black"/>
</svg>
